<svg xmlns="http://www.w3.org/2000/svg" width="34.542" height="40.015" viewBox="0 0 34.542 40.015">
  <g id="lock" transform="translate(-498.88 -1109)">
    <g id="Group_229" data-name="Group 229" transform="translate(464 1109)">
      <path id="Path_61" data-name="Path 61" d="M92.345,12.369a8.544,8.544,0,1,1,17.088,0V16.4h3.825V12.369a12.369,12.369,0,1,0-24.738,0V16.4h3.825Z" transform="translate(-49.431)" fill="#c7ab8e"/>
      <path id="Path_62" data-name="Path 62" d="M67.853,239.02h-31.4a1.569,1.569,0,0,0-1.569,1.569v18.123a1.569,1.569,0,0,0,1.569,1.569h31.4a1.569,1.569,0,0,0,1.569-1.569V240.589A1.569,1.569,0,0,0,67.853,239.02ZM53.328,256.1a1.177,1.177,0,0,1-2.354,0V256a1.177,1.177,0,0,1,2.354,0Zm.161-5.656a.224.224,0,0,0-.161.208V251.7a1.177,1.177,0,0,1-2.354,0v-1.042a2.574,2.574,0,0,1,1.783-2.446,1.949,1.949,0,1,0-2.555-1.852,1.177,1.177,0,1,1-2.354,0,4.3,4.3,0,1,1,5.641,4.09Z" transform="translate(0 -220.266)" fill="#c7ab8e"/>
    </g>
  </g>
</svg>
